<svg width="28" height="28" viewBox="0 0 28 28" fill="none" xmlns="http://www.w3.org/2000/svg">
<path d="M14 28C6.27854 28 0 21.718 0 13.9996C0 6.27954 6.27854 0 14 0C21.7198 0 28 6.27954 28 13.9996C28 21.718 21.7198 28 14 28ZM14 2.89573C7.87842 2.89573 2.89728 7.87784 2.89728 13.9996C2.89728 20.1222 7.87842 25.1026 14 25.1026C20.1232 25.1026 25.1052 20.1222 25.1052 13.9996C25.1052 7.87784 20.1232 2.89573 14 2.89573Z" fill="#2194F3"/>
<path d="M15.0897 6.65234C11.0626 6.65234 7.78271 9.92987 7.78271 13.9595H12.5636C12.5636 11.8486 14.2803 10.1343 16.392 10.1343C18.5028 10.1343 20.2172 11.8486 20.2172 13.9595H22.3999C22.3991 9.92987 19.1209 6.65234 15.0897 6.65234Z" fill="#2194F3"/>
<path d="M15.3553 13.9727C15.3553 16.0631 13.6606 17.7571 11.571 17.7571C9.47898 17.7571 7.78263 16.0631 7.78263 13.9727H5.59985C5.59985 18.0015 8.87974 21.2782 12.9076 21.2782C16.9372 21.2782 20.2154 18.0015 20.2154 13.9727H15.3553Z" fill="#231F20"/>
</svg>