<svg width="299" height="58" viewBox="0 0 299 58" fill="none" xmlns="http://www.w3.org/2000/svg">
<g clip-path="url(#clip0_1119_4049)">
<path d="M28.5716 53.8935C14.9596 53.8935 3.89157 42.8642 3.89157 29.3175C3.89157 15.7615 14.9596 4.73082 28.5716 4.73082C42.1769 4.73082 53.2516 15.7615 53.2516 29.3175C53.2516 42.8642 42.1769 53.8935 28.5716 53.8935ZM28.5716 0.968155C12.8809 0.968155 0.128906 13.6855 0.128906 29.3175C0.128906 44.9428 12.8809 57.6602 28.5716 57.6602C44.2502 57.6602 57.0076 44.9428 57.0076 29.3175C57.0076 13.6855 44.2502 0.968155 28.5716 0.968155Z" fill="#2196F3"/>
<path d="M30.5108 12.1863C20.8681 12.1863 13.0321 19.8663 12.7441 29.4409H24.3908C24.8455 24.5996 27.7441 20.8103 34.8988 20.8103C39.8601 20.8103 43.9281 24.5996 44.3761 29.4409H48.2641C47.9828 19.8663 40.1535 12.1863 30.5108 12.1863Z" fill="#2196F3"/>
<path d="M26.6267 46.6963C36.2721 46.6963 44.1054 39.0176 44.3947 29.4416H32.7467C32.2907 34.2816 29.3907 38.071 22.2414 38.071C17.2787 38.071 13.2081 34.2816 12.7614 29.4416H8.87207C9.1574 39.0176 16.9827 46.6963 26.6267 46.6963Z" fill="#2E323A"/>
<path d="M91.8996 27.8014H91.8876L85.7476 27.7988H77.1342C76.0102 27.7988 75.0929 27.0054 75.0929 24.9828C75.0929 23.1321 76.0102 22.4828 77.1342 22.4828H99.4969L99.4769 16.6601L76.4702 16.6388C70.6982 16.6388 68.2676 20.8108 68.2676 24.9828C68.2676 28.7894 70.3356 33.6174 78.4689 33.6174H78.4756H80.9609V33.6214H93.2316C94.3636 33.6214 95.2822 34.4721 95.2822 36.4961C95.2822 38.3588 94.3636 39.3734 93.2316 39.3734H69.2982L69.3129 45.2027L93.9036 45.2188C99.0209 45.2188 102.105 41.2961 102.105 36.5081C102.105 30.1628 97.8249 27.8014 91.8996 27.8014Z" fill="#2196F3"/>
<path d="M110.393 19.2188C108.752 21.0201 107.782 23.0788 107.782 25.5028V36.1241C107.782 37.6948 108.16 40.3921 110.51 42.7294C112.42 44.6267 114.858 45.2188 116.669 45.2188H141.788V39.3721H116.506C115.501 39.3041 114.701 38.5201 114.616 37.5254V24.3388C114.706 23.2828 115.574 22.4694 116.649 22.4694H141.788V16.6334H117.277C114.258 16.6334 112.061 17.5134 110.393 19.2188Z" fill="#2196F3"/>
<path d="M155.492 45.2188H148.854V39.3868H155.492V45.2188Z" fill="#2E323A"/>
<path d="M185.175 27.8014H185.163L179.023 27.7988H170.409C169.287 27.7988 168.368 27.0054 168.368 24.9828C168.368 23.1321 169.287 22.4828 170.409 22.4828H192.772L192.752 16.6588L169.747 16.6388C163.973 16.6388 161.544 20.8108 161.544 24.9828C161.544 28.7894 163.611 33.6174 171.744 33.6174H171.752H174.236V33.6214H186.508C187.639 33.6214 188.557 34.4721 188.557 36.4961C188.557 38.3588 187.639 39.3734 186.508 39.3734H162.573L162.589 45.2027L187.18 45.2188C192.296 45.2188 195.38 41.2961 195.38 36.5081C195.38 30.1628 191.1 27.8014 185.175 27.8014Z" fill="#2E323A"/>
<path d="M229.328 37.5259C229.241 38.5206 228.442 39.3032 227.436 39.3726H219.937H213.718H208.59C207.584 39.3032 206.786 38.5206 206.7 37.5259V24.3392C206.79 23.2819 207.658 22.4699 208.733 22.4699H213.718H219.937H227.293C228.368 22.4699 229.236 23.2819 229.328 24.3392V37.5259ZM226.665 16.6339H219.937H213.718H209.361C206.342 16.6339 204.145 17.5126 202.477 19.2192C200.836 21.0206 199.866 23.0792 199.866 25.5032V36.1246C199.866 37.6952 200.245 40.3926 202.596 42.7286C204.504 44.6259 206.942 45.2192 208.752 45.2192H213.718H219.937H227.273C229.084 45.2192 231.522 44.6259 233.432 42.7286C235.781 40.3926 236.16 37.6952 236.16 36.1246V25.5032C236.16 23.0792 235.19 21.0206 233.549 19.2192C231.881 17.5126 229.684 16.6339 226.665 16.6339Z" fill="#2E323A"/>
<path d="M250.763 22.4821H265.585L265.565 16.6594L250.099 16.6394C244.391 16.6394 241.956 20.7181 241.901 24.8434H241.897V45.2061H248.729V33.6221H262.664V27.7981H248.729V24.8607C248.771 23.1101 249.667 22.4821 250.763 22.4821Z" fill="#2E323A"/>
<path d="M298.874 16.6394H269.249V22.4621H280.646V45.2061H287.477V22.4621H298.874V16.6394Z" fill="#2E323A"/>
</g>
<defs>
<clipPath id="clip0_1119_4049">
<rect width="299" height="58" fill="white"/>
</clipPath>
</defs>
</svg>
